<svg width="116" height="116" viewBox="0 0 116 116" fill="none" xmlns="http://www.w3.org/2000/svg">
<rect width="116" height="116" fill="#1B1B1B"/>
<path d="M21.125 98.4766C21.125 99.1901 20.9609 99.8229 20.6328 100.375C20.3099 100.922 19.849 101.352 19.25 101.664C18.651 101.971 17.9375 102.125 17.1094 102.125H14.375V106H12.0703V94.9922H17.0156C18.3333 94.9922 19.3464 95.2969 20.0547 95.9062C20.7682 96.5104 21.125 97.3672 21.125 98.4766ZM18.8047 98.5156C18.8047 97.3594 18.1224 96.7812 16.7578 96.7812H14.375V100.352H16.8203C17.4557 100.352 17.9453 100.195 18.2891 99.8828C18.6328 99.5651 18.8047 99.1094 18.8047 98.5156ZM30.9531 104.219V106H22.7422V94.9922H25.0469V104.219H30.9531ZM35.1328 103.188L34.1562 106H31.8516L35.8672 94.9922H38.5859L42.5859 106H40.3047L39.3281 103.188H35.1328ZM37.2266 96.6875C37.1745 96.8958 37.1016 97.1458 37.0078 97.4375C36.9141 97.7292 36.8464 97.9349 36.8047 98.0547L35.6484 101.453H38.8125L37.625 97.9844C37.5521 97.7708 37.4844 97.5547 37.4219 97.3359C37.3594 97.1172 37.2943 96.901 37.2266 96.6875ZM48.0391 101.484V106H45.7422V101.484L41.8203 94.9922H44.2344L46.875 99.6484L49.5469 94.9922H51.9609L48.0391 101.484ZM61.5 104.219V106H53.2891V94.9922H55.5938V104.219H61.5ZM65.375 94.9922V106H63.0703V94.9922H65.375ZM76.5 102.828C76.5 103.906 76.099 104.732 75.2969 105.305C74.5 105.872 73.3281 106.156 71.7812 106.156C68.9948 106.156 67.3724 105.148 66.9141 103.133L69.1406 102.766C69.2917 103.349 69.5859 103.773 70.0234 104.039C70.4609 104.299 71.0677 104.43 71.8438 104.43C72.651 104.43 73.2552 104.307 73.6562 104.062C74.0573 103.818 74.2578 103.451 74.2578 102.961C74.2578 102.648 74.1667 102.391 73.9844 102.188C73.8021 101.984 73.5417 101.815 73.2031 101.68C73.0365 101.612 72.7917 101.539 72.4688 101.461C72.1458 101.378 71.7448 101.286 71.2656 101.188C70.7135 101.057 70.2812 100.948 69.9688 100.859C69.6562 100.766 69.4062 100.677 69.2188 100.594C69.0312 100.505 68.849 100.409 68.6719 100.305C68.2812 100.07 67.9766 99.7578 67.7578 99.3672C67.5391 98.9766 67.4297 98.4896 67.4297 97.9062C67.4297 96.9115 67.8021 96.151 68.5469 95.625C69.2969 95.0938 70.3854 94.8281 71.8125 94.8281C73.1771 94.8281 74.2005 95.0417 74.8828 95.4688C75.5703 95.8958 76.013 96.6016 76.2109 97.5859L73.9766 97.8906C73.862 97.4167 73.6276 97.0599 73.2734 96.8203C72.9245 96.5807 72.4219 96.4609 71.7656 96.4609C71.0677 96.4609 70.5443 96.5703 70.1953 96.7891C69.8464 97.0078 69.6719 97.3359 69.6719 97.7734C69.6719 98.0599 69.7448 98.2943 69.8906 98.4766C70.0417 98.6589 70.263 98.8151 70.5547 98.9453C70.8307 99.0703 71.4219 99.2292 72.3281 99.4219C72.8542 99.5365 73.3073 99.6458 73.6875 99.75C74.0677 99.849 74.3724 99.9453 74.6016 100.039C74.8307 100.138 75.0339 100.242 75.2109 100.352C75.3932 100.461 75.5495 100.578 75.6797 100.703C75.9453 100.958 76.1484 101.263 76.2891 101.617C76.4297 101.966 76.5 102.37 76.5 102.828ZM83.1641 96.7734V106H80.8594V96.7734H77.3047V94.9922H86.7266V96.7734H83.1641ZM88.4688 103.617V106H86.2109V103.617H88.4688Z" fill="#484848"/>
<path d="M90.5541 106.528C90.3621 106.421 90.2555 106.304 90.2341 106.176C90.2235 106.048 90.2981 105.824 90.4581 105.504C90.6181 105.184 90.8688 104.688 91.2101 104.016C91.4661 103.536 91.6368 103.163 91.7221 102.896C91.8181 102.619 91.8715 102.421 91.8821 102.304C91.8928 102.187 91.8981 102.112 91.8981 102.08C91.8768 101.984 91.8875 101.909 91.9301 101.856C91.9728 101.792 92.0421 101.739 92.1381 101.696C92.1915 101.643 92.3141 101.547 92.5061 101.408C92.6981 101.269 92.8475 101.104 92.9541 100.912C93.0501 100.688 93.1568 100.459 93.2741 100.224C93.4021 99.9893 93.5675 99.696 93.7701 99.344C93.9728 98.9813 94.2448 98.512 94.5861 97.936C94.7995 97.5627 95.0501 97.1413 95.3381 96.672C95.6368 96.2027 95.9301 95.776 96.2181 95.392C96.3355 95.2427 96.4581 95.1253 96.5861 95.04C96.7141 94.9547 96.8261 94.912 96.9221 94.912C97.1568 94.912 97.3915 94.976 97.6261 95.104C97.8608 95.2213 98.0688 95.3707 98.2501 95.552C98.4315 95.7333 98.5541 95.904 98.6181 96.064C98.6715 96.1493 98.6928 96.3307 98.6821 96.608C98.6715 96.8853 98.6501 97.2213 98.6181 97.616C98.5861 98.0107 98.5488 98.432 98.5061 98.88C98.4741 99.3173 98.4261 99.8347 98.3621 100.432C98.2981 101.029 98.2341 101.653 98.1701 102.304C98.1168 102.955 98.0741 103.584 98.0421 104.192C98.0101 104.789 98.0101 105.312 98.0421 105.76C98.0528 105.856 98.0528 105.947 98.0421 106.032C98.0315 106.117 98.0261 106.187 98.0261 106.24C97.9621 106.304 97.8235 106.331 97.6101 106.32C97.3968 106.32 97.1888 106.288 96.9861 106.224C96.7835 106.16 96.6715 106.08 96.6501 105.984C96.6181 105.952 96.5968 105.925 96.5861 105.904C96.5755 105.883 96.5755 105.781 96.5861 105.6C96.5968 105.408 96.6128 105.061 96.6341 104.56L96.7141 102.112L96.5061 102.128C96.4101 102.128 96.2341 102.139 95.9781 102.16C95.7328 102.181 95.4608 102.213 95.1621 102.256C94.8741 102.288 94.6075 102.325 94.3621 102.368C94.1168 102.4 93.9461 102.432 93.8501 102.464C93.7541 102.464 93.6368 102.528 93.4981 102.656C93.3701 102.784 93.2475 102.949 93.1301 103.152C93.0875 103.301 93.0075 103.461 92.8901 103.632C92.7835 103.792 92.7301 103.899 92.7301 103.952C92.6555 104.005 92.5915 104.069 92.5381 104.144C92.4955 104.219 92.4741 104.256 92.4741 104.256C92.4741 104.32 92.4261 104.48 92.3301 104.736C92.2341 104.981 92.1168 105.259 91.9781 105.568C91.8395 105.867 91.6955 106.128 91.5461 106.352L91.1141 106.96L90.5541 106.528ZM94.3781 101.024C94.3781 101.024 94.4368 101.013 94.5541 100.992C94.6715 100.971 94.8101 100.949 94.9701 100.928C95.1408 100.896 95.2901 100.88 95.4181 100.88C95.6635 100.816 95.8661 100.768 96.0261 100.736C96.1968 100.704 96.3355 100.688 96.4421 100.688C96.5488 100.677 96.6341 100.688 96.6981 100.72C96.7408 100.773 96.7781 100.805 96.8101 100.816C96.8528 100.827 96.8741 100.832 96.8741 100.832C96.8848 100.811 96.9061 100.699 96.9381 100.496C96.9701 100.293 97.0075 100.043 97.0501 99.744C97.0928 99.4453 97.1355 99.136 97.1781 98.816C97.2208 98.4853 97.2581 98.1813 97.2901 97.904C97.3221 97.616 97.3435 97.392 97.3541 97.232C97.3648 97.0293 97.3595 96.848 97.3381 96.688C97.3168 96.5173 97.3061 96.432 97.3061 96.432C97.2421 96.432 97.1195 96.5493 96.9381 96.784C96.7675 97.008 96.5648 97.312 96.3301 97.696C96.1061 98.0693 95.8821 98.4747 95.6581 98.912C95.5515 99.1147 95.4501 99.2747 95.3541 99.392C95.2688 99.5093 95.1995 99.568 95.1461 99.568C95.1248 99.5893 95.0661 99.6747 94.9701 99.824C94.8848 99.9627 94.7888 100.123 94.6821 100.304C94.5861 100.475 94.5008 100.635 94.4261 100.784C94.3621 100.923 94.3461 101.003 94.3781 101.024ZM100.55 107.088C100.465 106.981 100.331 106.917 100.15 106.896C99.9687 106.875 99.6913 106.88 99.318 106.912C99.1687 106.933 99.014 106.923 98.854 106.88C98.694 106.837 98.5607 106.773 98.454 106.688C98.3473 106.603 98.3047 106.512 98.326 106.416C98.3367 106.288 98.4593 106.149 98.694 106C98.9393 105.84 99.2913 105.749 99.75 105.728L100.438 105.68L100.598 105.344C100.63 105.227 100.673 105.061 100.726 104.848C100.79 104.635 100.854 104.405 100.918 104.16C100.961 104.011 101.019 103.792 101.094 103.504C101.179 103.216 101.27 102.912 101.366 102.592C101.462 102.272 101.547 101.984 101.622 101.728C101.697 101.472 101.739 101.296 101.75 101.2C101.793 101.104 101.851 100.928 101.926 100.672C102.001 100.416 102.075 100.155 102.15 99.888C102.225 99.6107 102.273 99.4187 102.294 99.312C102.539 98.4587 102.699 97.8613 102.774 97.52C102.849 97.168 102.865 96.992 102.822 96.992C102.779 96.992 102.678 96.9973 102.518 97.008C102.358 97.0187 102.177 97.04 101.974 97.072C101.782 97.0933 101.611 97.12 101.462 97.152C101.313 97.1733 101.227 97.1947 101.206 97.216C101.153 97.2907 101.062 97.296 100.934 97.232C100.806 97.168 100.721 97.0827 100.678 96.976C100.667 96.88 100.662 96.7627 100.662 96.624C100.673 96.4853 100.699 96.4 100.742 96.368C100.817 96.304 100.977 96.2347 101.222 96.16C101.478 96.0853 101.761 96.016 102.07 95.952C102.379 95.8773 102.657 95.8187 102.902 95.776C103.083 95.7547 103.265 95.712 103.446 95.648C103.627 95.5733 103.766 95.4933 103.862 95.408C103.958 95.3653 104.049 95.3333 104.134 95.312C104.23 95.2907 104.326 95.2853 104.422 95.296C104.507 95.3387 104.651 95.36 104.854 95.36C105.067 95.3493 105.291 95.3333 105.526 95.312C106.123 95.2373 106.529 95.2267 106.742 95.28C106.955 95.3227 107.099 95.4667 107.174 95.712C107.227 95.904 107.238 96.0693 107.206 96.208C107.185 96.336 107.083 96.3947 106.902 96.384C106.806 96.416 106.63 96.4427 106.374 96.464C106.129 96.4853 105.867 96.5067 105.59 96.528C105.227 96.5707 104.971 96.6187 104.822 96.672C104.683 96.7147 104.603 96.7573 104.582 96.8C104.539 96.8427 104.502 96.8853 104.47 96.928C104.449 96.9707 104.417 97.0187 104.374 97.072C104.395 97.1147 104.379 97.2427 104.326 97.456C104.273 97.6693 104.209 97.8987 104.134 98.144C104.091 98.2827 104.027 98.4907 103.942 98.768C103.857 99.0347 103.766 99.3173 103.67 99.616C103.585 99.9147 103.505 100.187 103.43 100.432C103.355 100.667 103.302 100.821 103.27 100.896C103.238 100.992 103.206 101.099 103.174 101.216C103.153 101.323 103.142 101.403 103.142 101.456C102.971 102.149 102.817 102.736 102.678 103.216C102.55 103.685 102.433 104.107 102.326 104.48C102.23 104.843 102.134 105.221 102.038 105.616C102.038 105.616 102.166 105.611 102.422 105.6C102.689 105.579 102.961 105.547 103.238 105.504C103.611 105.451 103.883 105.424 104.054 105.424C104.235 105.424 104.353 105.445 104.406 105.488C104.47 105.52 104.502 105.568 104.502 105.632C104.513 105.685 104.534 105.749 104.566 105.824C104.79 106.101 104.822 106.304 104.662 106.432C104.513 106.56 104.139 106.635 103.542 106.656C102.987 106.699 102.55 106.731 102.23 106.752C101.921 106.784 101.697 106.816 101.558 106.848C101.43 106.88 101.361 106.933 101.35 107.008C101.35 107.061 101.307 107.12 101.222 107.184C101.137 107.259 101.03 107.296 100.902 107.296C100.785 107.296 100.667 107.227 100.55 107.088Z" fill="#1DB954"/>
<g filter="url(#filter0_d_183_2)">
<path d="M21.5736 35.3257C21.8779 32.5864 24.744 30.6335 26.139 29.9994L27.2803 66.142L24.2367 62.3375C23.2222 54.4749 21.2692 38.0649 21.5736 35.3257Z" fill="#0F5729" stroke="black"/>
<path d="M31.7758 18.9664H95.0001L94.2152 67.7953L33.3455 76.0336L27.0666 67.7953L25.7585 18.9664H31.7758Z" fill="#1DB954"/>
<path d="M31.7758 18.9664H95.0001L94.2152 67.7953L33.3455 76.0336M31.7758 18.9664L33.3455 76.0336M31.7758 18.9664H25.7585L27.0666 67.7953L33.3455 76.0336M40.2347 26.5181C40.2347 26.5181 38.461 39.103 38.665 47.1996C38.8805 55.7476 41.5428 68.9109 41.5428 68.9109C41.5428 68.9109 56.2059 68.8139 65.5245 67.7953C74.4558 66.819 88.198 63.9336 88.198 63.9336C88.198 63.9336 90.1166 52.254 90.1166 44.711C90.1166 37.168 88.198 25.4883 88.198 25.4883C88.198 25.4883 73.5901 24.1734 64.2164 24.3727C54.8145 24.5727 40.2347 26.5181 40.2347 26.5181Z" stroke="black" stroke-linecap="round"/>
<path d="M38.6648 47.1996C38.4607 39.103 40.2345 26.5181 40.2345 26.5181C40.2345 26.5181 54.8143 24.5727 64.2161 24.3727C73.5898 24.1734 88.1978 25.4883 88.1978 25.4883C88.1978 25.4883 90.1163 37.168 90.1163 44.711C90.1163 52.254 88.1978 63.9336 88.1978 63.9336C88.1978 63.9336 74.4555 66.8191 65.5242 67.7953C56.2057 68.8139 41.5426 68.9109 41.5426 68.9109C41.5426 68.9109 38.8802 55.7476 38.6648 47.1996Z" fill="#20462E" stroke="black" stroke-linecap="round"/>
<path d="M31.7758 18.9664L33.3455 76.0336L27.0666 67.7953L25.7585 18.9664H31.7758Z" fill="#146C33" stroke="black" stroke-linecap="round"/>
<mask id="path-7-outside-1_183_2" maskUnits="userSpaceOnUse" x="49.5662" y="31.6268" width="29" height="30" fill="black">
<rect fill="white" x="49.5662" y="31.6268" width="29" height="30"/>
<path fill-rule="evenodd" clip-rule="evenodd" d="M77.0883 52.2818V32.6268L57.062 33.5466V54.1772C56.2933 53.8828 55.3874 53.7748 54.4449 53.9107C52.0492 54.2562 50.3249 56.0468 50.5936 57.9101C50.8623 59.7734 53.0223 61.0039 55.418 60.6584C57.8136 60.3129 59.5379 58.5223 59.2692 56.659C59.1902 56.1112 58.9477 55.618 58.5838 55.2035V35.0001L75.5665 34.2201V51.2554C74.7978 50.961 73.8919 50.853 72.9494 50.9889C70.5537 51.3344 68.8294 53.1249 69.0981 54.9883C69.3668 56.8516 71.5268 58.082 73.9224 57.7366C76.3181 57.3911 78.0424 55.6005 77.7737 53.7372C77.6947 53.1894 77.4522 52.6962 77.0883 52.2818Z"/>
</mask>
<path fill-rule="evenodd" clip-rule="evenodd" d="M77.0883 52.2818V32.6268L57.062 33.5466V54.1772C56.2933 53.8828 55.3874 53.7748 54.4449 53.9107C52.0492 54.2562 50.3249 56.0468 50.5936 57.9101C50.8623 59.7734 53.0223 61.0039 55.418 60.6584C57.8136 60.3129 59.5379 58.5223 59.2692 56.659C59.1902 56.1112 58.9477 55.618 58.5838 55.2035V35.0001L75.5665 34.2201V51.2554C74.7978 50.961 73.8919 50.853 72.9494 50.9889C70.5537 51.3344 68.8294 53.1249 69.0981 54.9883C69.3668 56.8516 71.5268 58.082 73.9224 57.7366C76.3181 57.3911 78.0424 55.6005 77.7737 53.7372C77.6947 53.1894 77.4522 52.6962 77.0883 52.2818Z" fill="white"/>
<path d="M77.0884 32.6268H77.5884V32.1033L77.0655 32.1273L77.0884 32.6268ZM77.0884 52.2818H76.5884V52.4701L76.7127 52.6117L77.0884 52.2818ZM57.0621 33.5466L57.0392 33.0472L56.5621 33.0691V33.5466H57.0621ZM57.0621 54.1772L56.8833 54.6442L57.5621 54.9042V54.1772H57.0621ZM54.445 53.9107L54.3736 53.4158L54.3736 53.4158L54.445 53.9107ZM50.5938 57.9101L50.0989 57.9815L50.0989 57.9815L50.5938 57.9101ZM55.4181 60.6584L55.3467 60.1635L55.3467 60.1635L55.4181 60.6584ZM59.2693 56.659L59.7642 56.5877L59.7642 56.5877L59.2693 56.659ZM58.5839 55.2035H58.0839V55.3919L58.2082 55.5334L58.5839 55.2035ZM58.5839 35.0001L58.561 34.5007L58.0839 34.5226V35.0001H58.5839ZM75.5666 34.2201H76.0666V33.6966L75.5437 33.7206L75.5666 34.2201ZM75.5666 51.2555L75.3878 51.7224L76.0666 51.9824V51.2555H75.5666ZM72.9495 50.9889L73.0209 51.4838L73.0209 51.4838L72.9495 50.9889ZM69.0982 54.9883L69.5931 54.9169L69.5931 54.9169L69.0982 54.9883ZM73.9226 57.7366L73.8512 57.2417L73.8512 57.2417L73.9226 57.7366ZM77.7738 53.7372L77.2789 53.8086L77.2789 53.8086L77.7738 53.7372ZM76.5884 32.6268V52.2818H77.5884V32.6268H76.5884ZM57.085 34.0461L77.1114 33.1262L77.0655 32.1273L57.0392 33.0472L57.085 34.0461ZM57.5621 54.1772V33.5466H56.5621V54.1772H57.5621ZM57.241 53.7103C56.3892 53.384 55.3968 53.2683 54.3736 53.4158L54.5164 54.4056C55.3781 54.2813 56.1977 54.3815 56.8833 54.6442L57.241 53.7103ZM54.3736 53.4158C51.8276 53.783 49.7751 55.7363 50.0989 57.9815L51.0886 57.8387C50.875 56.3573 52.271 54.7294 54.5164 54.4056L54.3736 53.4158ZM50.0989 57.9815C50.4226 60.2266 52.9434 61.5204 55.4894 61.1533L55.3467 60.1635C53.1014 60.4873 51.3023 59.3202 51.0886 57.8387L50.0989 57.9815ZM55.4894 61.1533C58.0355 60.7861 60.088 58.8328 59.7642 56.5877L58.7744 56.7304C58.9881 58.2118 57.592 59.8397 55.3467 60.1635L55.4894 61.1533ZM59.7642 56.5877C59.6701 55.9354 59.3816 55.3542 58.9596 54.8736L58.2082 55.5334C58.514 55.8818 58.7105 56.2869 58.7744 56.7304L59.7642 56.5877ZM58.0839 35.0001V55.2035H59.0839V35.0001H58.0839ZM75.5437 33.7206L58.561 34.5007L58.6068 35.4996L75.5896 34.7195L75.5437 33.7206ZM76.0666 51.2555V34.2201H75.0666V51.2555H76.0666ZM75.7455 50.7885C74.8937 50.4622 73.9013 50.3465 72.8781 50.494L73.0209 51.4838C73.8826 51.3595 74.7022 51.4597 75.3878 51.7224L75.7455 50.7885ZM72.8781 50.494C70.3321 50.8612 68.2796 52.8145 68.6034 55.0596L69.5931 54.9169C69.3795 53.4354 70.7755 51.8076 73.0209 51.4838L72.8781 50.494ZM68.6034 55.0596C68.9271 57.3048 71.4479 58.5986 73.9939 58.2314L73.8512 57.2417C71.6059 57.5655 69.8068 56.3984 69.5931 54.9169L68.6034 55.0596ZM73.9939 58.2314C76.54 57.8643 78.5925 55.911 78.2687 53.6658L77.2789 53.8086C77.4926 55.29 76.0965 56.9179 73.8512 57.2417L73.9939 58.2314ZM78.2687 53.6658C78.1746 53.0137 77.8861 52.4325 77.4642 51.9519L76.7127 52.6117C77.0185 52.96 77.215 53.3651 77.2789 53.8086L78.2687 53.6658Z" fill="black" mask="url(#path-7-outside-1_183_2)"/>
</g>
<path d="M12.5742 90.5879C12.724 90.5879 12.8691 90.5664 13.0098 90.5234C13.1504 90.4792 13.2591 90.4232 13.3359 90.3555V89.9746H12.6641V89.5488H13.8633V90.5605C13.7174 90.7103 13.5273 90.8275 13.293 90.9121C13.0599 90.9967 12.8151 91.0391 12.5586 91.0391C12.2604 91.0391 12.0072 90.9837 11.7988 90.873C11.5918 90.7611 11.4342 90.599 11.3262 90.3867C11.2181 90.1732 11.1641 89.9147 11.1641 89.6113C11.1641 89.1582 11.2852 88.8112 11.5273 88.5703C11.7695 88.3281 12.1178 88.207 12.5723 88.207C12.8952 88.207 13.1595 88.2669 13.3652 88.3867C13.571 88.5052 13.7174 88.6842 13.8047 88.9238L13.2734 89.084C13.2161 88.9447 13.1263 88.8392 13.0039 88.7676C12.8815 88.696 12.7376 88.6602 12.5723 88.6602C12.3014 88.6602 12.0957 88.7422 11.9551 88.9062C11.8145 89.0703 11.7441 89.3053 11.7441 89.6113C11.7441 89.9225 11.8164 90.1634 11.9609 90.334C12.1068 90.5033 12.3112 90.5879 12.5742 90.5879ZM16.625 90.5547V91H14.3809V88.248H16.5449V88.6934H14.957V89.3848H16.4258V89.8301H14.957V90.5547H16.625ZM17.5605 89.377V91H17.0488V88.248H17.707L18.9238 90.3848C18.9004 90.1868 18.8887 90.0078 18.8887 89.8477V88.248H19.4004V91H18.7246L17.5254 88.8809C17.5371 88.9837 17.5456 89.0768 17.5508 89.1602C17.5573 89.2422 17.5605 89.3145 17.5605 89.377ZM22.1836 90.5547V91H19.9395V88.248H22.1035V88.6934H20.5156V89.3848H21.9844V89.8301H20.5156V90.5547H22.1836ZM23.1836 89.9551V91H22.6074V88.248H23.9824C24.3105 88.248 24.5638 88.319 24.7422 88.4609C24.9206 88.6016 25.0098 88.804 25.0098 89.0684C25.0098 89.2611 24.9551 89.4277 24.8457 89.5684C24.7363 89.7077 24.5885 89.7995 24.4023 89.8438L25.1465 91H24.498L23.8594 89.9551H23.1836ZM24.4297 89.0918C24.4297 88.9603 24.3874 88.8613 24.3027 88.7949C24.2181 88.7285 24.0911 88.6953 23.9219 88.6953H23.1836V89.5078H23.9375C24.099 89.5078 24.2214 89.4714 24.3047 89.3984C24.388 89.3255 24.4297 89.2233 24.4297 89.0918ZM26.1504 90.2969L25.9062 91H25.3301L26.334 88.248H27.0137L28.0137 91H27.4434L27.1992 90.2969H26.1504ZM26.6738 88.6719C26.6608 88.724 26.6426 88.7865 26.6191 88.8594C26.5957 88.9323 26.5788 88.9837 26.5684 89.0137L26.2793 89.8633H27.0703L26.7734 88.9961C26.7552 88.9427 26.7383 88.8887 26.7227 88.834C26.707 88.7793 26.6908 88.7253 26.6738 88.6719ZM29.334 88.6934V91H28.7578V88.6934H27.8691V88.248H30.2246V88.6934H29.334ZM32.7812 90.5547V91H30.5371V88.248H32.7012V88.6934H31.1133V89.3848H32.582V89.8301H31.1133V90.5547H32.7812ZM35.6582 89.6035C35.6582 89.8978 35.6009 90.1491 35.4863 90.3574C35.373 90.5658 35.2155 90.7253 35.0137 90.8359C34.8132 90.9453 34.5814 91 34.3184 91H33.2051V88.248H34.2012C34.6647 88.248 35.0234 88.3652 35.2773 88.5996C35.5312 88.8327 35.6582 89.1673 35.6582 89.6035ZM35.0781 89.6035C35.0781 89.3079 35.0013 89.0827 34.8477 88.9277C34.694 88.7715 34.4746 88.6934 34.1895 88.6934H33.7812V90.5547H34.2695C34.4349 90.5547 34.5775 90.5163 34.6973 90.4395C34.8184 90.3613 34.9121 90.2513 34.9785 90.1094C35.0449 89.9674 35.0781 89.7988 35.0781 89.6035ZM38.7168 89.3711L38.3379 91H37.6543L36.9453 88.248H37.5293L37.9121 89.9336C37.929 90.0052 37.9473 90.0879 37.9668 90.1816C37.9876 90.2754 38.0046 90.3665 38.0176 90.4551C38.0306 90.3939 38.0423 90.3346 38.0527 90.2773C38.0645 90.2188 38.0762 90.1615 38.0879 90.1055C38.0996 90.0482 38.112 89.9915 38.125 89.9355L38.5137 88.248H39.1582L39.543 89.875C39.556 89.9297 39.5716 90.0091 39.5898 90.1133C39.6094 90.2174 39.6276 90.3314 39.6445 90.4551C39.6615 90.3796 39.6764 90.3132 39.6895 90.2559C39.7038 90.1973 39.7174 90.1393 39.7305 90.082C39.7448 90.0234 39.7598 89.957 39.7754 89.8828L40.1289 88.248H40.7129L40.002 91H39.3184L38.9453 89.4082C38.9232 89.3145 38.9023 89.2188 38.8828 89.1211C38.8633 89.0234 38.8457 88.9232 38.8301 88.8203C38.8197 88.8763 38.8066 88.9421 38.791 89.0176C38.7754 89.0931 38.7604 89.1634 38.7461 89.2285C38.7331 89.2936 38.7233 89.3411 38.7168 89.3711ZM41.5625 88.248V91H40.9863V88.248H41.5625ZM43.3418 88.6934V91H42.7656V88.6934H41.877V88.248H44.2324V88.6934H43.3418ZM45.1211 89.8203V91H44.5449V88.248H45.1211V89.3438H46.3203V88.248H46.8965V91H46.3203V89.8203H45.1211Z" fill="#484848"/>
<defs>
<filter id="filter0_d_183_2" x="17.042" y="14.4664" width="82.4663" height="67.1038" filterUnits="userSpaceOnUse" color-interpolation-filters="sRGB">
<feFlood flood-opacity="0" result="BackgroundImageFix"/>
<feColorMatrix in="SourceAlpha" type="matrix" values="0 0 0 0 0 0 0 0 0 0 0 0 0 0 0 0 0 0 127 0" result="hardAlpha"/>
<feOffset/>
<feGaussianBlur stdDeviation="2"/>
<feComposite in2="hardAlpha" operator="out"/>
<feColorMatrix type="matrix" values="0 0 0 0 0.113725 0 0 0 0 0.72549 0 0 0 0 0.329412 0 0 0 1 0"/>
<feBlend mode="normal" in2="BackgroundImageFix" result="effect1_dropShadow_183_2"/>
<feBlend mode="normal" in="SourceGraphic" in2="effect1_dropShadow_183_2" result="shape"/>
</filter>
</defs>
</svg>
